<svg xmlns="http://www.w3.org/2000/svg" xmlns:xlink="http://www.w3.org/1999/xlink" width="288" zoomAndPan="magnify" viewBox="0 0 216 72" height="96" preserveAspectRatio="xMidYMid meet" version="1.0"><defs><clipPath id="79a1abda62"><path d="M 36.175781 51 L 55 51 L 55 69 L 36.175781 69 Z M 36.175781 51 " clip-rule="nonzero"/></clipPath></defs><path fill="#000000" d="M 67.175781 35.992188 C 67.175781 29.007812 60.582031 24.777344 54.730469 23.632812 L 54.730469 23.5 C 60.246094 22.628906 65.628906 20.140625 65.628906 13.898438 C 65.628906 8.054688 60.246094 2.144531 50.828125 2.144531 L 33.203125 2.144531 L 33.203125 2.949219 L 37.914062 2.949219 L 37.914062 46.46875 L 33.203125 46.46875 L 33.203125 47.273438 L 49.957031 47.273438 C 64.351562 47.273438 67.175781 41.09375 67.175781 35.992188 Z M 58.835938 12.621094 C 58.835938 21.484375 55.269531 23.296875 49.753906 23.296875 L 44.773438 23.296875 L 44.773438 2.949219 L 50.425781 2.949219 C 56.347656 2.949219 58.835938 7.113281 58.835938 12.621094 Z M 60.382812 34.648438 C 60.382812 41.632812 57.691406 46.46875 50.695312 46.46875 L 44.773438 46.46875 L 44.773438 24.105469 L 51.636719 24.105469 C 57.421875 24.105469 60.382812 28.335938 60.382812 34.648438 Z M 60.382812 34.648438 " fill-opacity="1" fill-rule="nonzero"/><path fill="#000000" d="M 106.796875 33.238281 L 106.125 33.238281 C 105.25 41.363281 97.515625 46.46875 92.269531 46.46875 L 80.832031 46.46875 L 80.832031 24.574219 L 84.128906 24.574219 C 89.980469 24.574219 93.480469 28 93.480469 34.109375 L 94.152344 34.109375 L 94.152344 14.433594 L 93.480469 14.433594 C 93.480469 20.140625 89.308594 23.632812 84.128906 23.632812 L 80.832031 23.632812 L 80.832031 2.949219 L 93.277344 2.949219 C 98.523438 2.949219 102.964844 6.578125 103.570312 13.425781 L 104.242188 13.425781 L 104.242188 2.144531 L 69.261719 2.144531 L 69.261719 2.949219 L 73.96875 2.949219 L 73.96875 46.46875 L 69.261719 46.46875 L 69.261719 47.273438 L 106.796875 47.273438 Z M 106.796875 33.238281 " fill-opacity="1" fill-rule="nonzero"/><path fill="#000000" d="M 142.921875 34.515625 C 142.921875 28.066406 139.15625 24.105469 132.96875 21.886719 L 123.550781 18.464844 C 118.4375 16.582031 116.554688 14.097656 116.554688 10.203125 C 116.554688 4.023438 121.597656 2.210938 125.433594 2.210938 C 132.632812 2.210938 137.003906 8.457031 137.675781 13.15625 L 138.484375 13.15625 L 138.484375 1.875 L 138.011719 1.875 C 136.800781 3.488281 134.785156 3.753906 132.765625 2.949219 C 130.746094 2.210938 128.527344 1.40625 125.5 1.40625 C 118.03125 1.40625 111.910156 6.308594 111.910156 13.023438 C 111.910156 19.46875 115.34375 22.894531 121.53125 25.179688 L 130.007812 28.335938 C 134.714844 30.082031 137.003906 33.371094 137.003906 37.335938 C 137.003906 43.175781 133.304688 47.074219 126.441406 47.074219 C 119.175781 47.074219 112.921875 40.019531 110.835938 32.632812 L 110.027344 32.632812 L 110.027344 46.535156 L 110.566406 46.535156 C 111.441406 45.058594 112.921875 44.183594 116.21875 45.058594 C 120.050781 46.132812 122.003906 47.945312 127.316406 47.945312 C 138.484375 47.945312 142.921875 39.417969 142.921875 34.515625 Z M 142.921875 34.515625 " fill-opacity="1" fill-rule="nonzero"/><path fill="#000000" d="M 181.46875 2.144531 L 143.796875 2.144531 L 143.796875 15.039062 L 144.539062 15.039062 C 145.480469 8.726562 150.121094 2.949219 155.433594 2.949219 L 159.203125 2.949219 L 159.203125 46.46875 L 154.492188 46.46875 L 154.492188 47.273438 L 170.773438 47.273438 L 170.773438 46.46875 L 166.066406 46.46875 L 166.066406 2.949219 L 169.832031 2.949219 C 175.148438 2.949219 179.789062 8.726562 180.730469 15.039062 L 181.46875 15.039062 Z M 181.46875 2.144531 " fill-opacity="1" fill-rule="nonzero"/><g clip-path="url(#79a1abda62)"><path fill="#000000" d="M 54.6875 68.0625 L 52.945312 68.0625 L 52.945312 51.992188 L 54.6875 51.992188 L 54.6875 51.695312 L 50.4375 51.695312 L 45.941406 64.691406 L 45.84375 64.691406 L 40.972656 51.695312 L 36.601562 51.695312 L 36.601562 51.992188 L 38.339844 51.992188 L 38.339844 68.0625 L 36.601562 68.0625 L 36.601562 68.359375 L 40.425781 68.359375 L 40.425781 68.0625 L 38.6875 68.0625 L 38.6875 52.414062 L 44.800781 68.707031 L 44.921875 68.707031 L 50.460938 52.636719 L 50.5625 52.636719 L 50.5625 68.0625 L 48.824219 68.0625 L 48.824219 68.359375 L 54.6875 68.359375 Z M 54.6875 68.0625 " fill-opacity="1" fill-rule="nonzero"/></g><path fill="#000000" d="M 74.433594 68.0625 L 72.722656 68.0625 L 66.558594 51.324219 L 66.335938 51.324219 L 60.425781 68.0625 L 58.710938 68.0625 L 58.710938 68.359375 L 62.511719 68.359375 L 62.511719 68.0625 L 60.773438 68.0625 L 62.511719 63.101562 L 68.324219 63.101562 L 70.136719 68.0625 L 68.398438 68.0625 L 68.398438 68.359375 L 74.433594 68.359375 Z M 62.636719 62.753906 L 65.34375 55.140625 L 65.417969 55.140625 L 68.199219 62.753906 Z M 62.636719 62.753906 " fill-opacity="1" fill-rule="nonzero"/><path fill="#000000" d="M 93.464844 62.085938 L 87.5 62.085938 L 87.5 62.382812 L 89.242188 62.382812 C 89.242188 64.839844 89.214844 65.980469 88.867188 66.699219 C 88.246094 67.964844 86.609375 68.410156 85.464844 68.410156 C 82.65625 68.410156 80.992188 66.027344 80.992188 60.746094 C 80.992188 55.6875 82.535156 51.621094 85.613281 51.621094 C 88.445312 51.621094 89.984375 54.597656 90.53125 56.953125 L 90.804688 56.953125 L 90.804688 51.96875 L 90.632812 51.96875 C 90.335938 52.464844 89.9375 52.636719 89.539062 52.636719 C 89.164062 52.636719 88.792969 52.488281 88.445312 52.265625 C 87.726562 51.792969 86.980469 51.347656 85.515625 51.347656 C 82.285156 51.347656 78.359375 55.191406 78.359375 60.226562 C 78.359375 65.0625 81.664062 68.707031 85.589844 68.707031 C 86.609375 68.707031 87.851562 68.308594 88.71875 67.691406 C 89.242188 67.320312 89.8125 67.171875 90.382812 67.171875 C 90.753906 67.171875 91.128906 67.242188 91.476562 67.367188 L 91.726562 67.367188 L 91.726562 62.382812 L 93.464844 62.382812 Z M 93.464844 62.085938 " fill-opacity="1" fill-rule="nonzero"/><path fill="#000000" d="M 111.796875 68.0625 L 110.082031 68.0625 L 103.921875 51.324219 L 103.699219 51.324219 L 97.785156 68.0625 L 96.070312 68.0625 L 96.070312 68.359375 L 99.871094 68.359375 L 99.871094 68.0625 L 98.132812 68.0625 L 99.871094 63.101562 L 105.6875 63.101562 L 107.5 68.0625 L 105.761719 68.0625 L 105.761719 68.359375 L 111.796875 68.359375 Z M 99.996094 62.753906 L 102.703125 55.140625 L 102.777344 55.140625 L 105.5625 62.753906 Z M 99.996094 62.753906 " fill-opacity="1" fill-rule="nonzero"/><path fill="#000000" d="M 128.292969 63.425781 L 128.042969 63.425781 C 127.296875 66.128906 124.886719 68.039062 122.851562 68.039062 L 118.28125 68.039062 L 127.671875 51.695312 L 116.242188 51.695312 L 116.242188 56.605469 L 116.492188 56.605469 C 117.113281 54.125 118.652344 52.019531 121.3125 52.019531 L 124.613281 52.019531 L 115.273438 68.359375 L 128.292969 68.359375 Z M 128.292969 63.425781 " fill-opacity="1" fill-rule="nonzero"/><path fill="#000000" d="M 139.394531 68.0625 L 137.65625 68.0625 L 137.65625 51.992188 L 139.394531 51.992188 L 139.394531 51.695312 L 133.382812 51.695312 L 133.382812 51.992188 L 135.121094 51.992188 L 135.121094 68.0625 L 133.382812 68.0625 L 133.382812 68.359375 L 139.394531 68.359375 Z M 139.394531 68.0625 " fill-opacity="1" fill-rule="nonzero"/><path fill="#000000" d="M 159.046875 51.695312 L 155.21875 51.695312 L 155.21875 51.992188 L 156.957031 51.992188 L 156.957031 63.722656 L 156.882812 63.722656 L 149.183594 51.695312 L 144.511719 51.695312 L 144.511719 51.992188 L 146.253906 51.992188 L 146.253906 68.0625 L 144.511719 68.0625 L 144.511719 68.359375 L 148.339844 68.359375 L 148.339844 68.0625 L 146.601562 68.0625 L 146.601562 52.238281 L 146.675781 52.238281 L 157.132812 68.683594 L 157.304688 68.683594 L 157.304688 51.992188 L 159.046875 51.992188 Z M 159.046875 51.695312 " fill-opacity="1" fill-rule="nonzero"/><path fill="#000000" d="M 177.777344 63.175781 L 177.527344 63.175781 C 177.203125 66.175781 174.347656 68.0625 172.410156 68.0625 L 168.1875 68.0625 L 168.1875 59.976562 L 169.40625 59.976562 C 171.566406 59.976562 172.855469 61.242188 172.855469 63.5 L 173.105469 63.5 L 173.105469 56.234375 L 172.855469 56.234375 C 172.855469 58.339844 171.316406 59.628906 169.40625 59.628906 L 168.1875 59.628906 L 168.1875 51.992188 L 172.78125 51.992188 C 174.71875 51.992188 176.359375 53.332031 176.582031 55.863281 L 176.832031 55.863281 L 176.832031 51.695312 L 163.914062 51.695312 L 163.914062 51.992188 L 165.652344 51.992188 L 165.652344 68.0625 L 163.914062 68.0625 L 163.914062 68.359375 L 177.777344 68.359375 Z M 177.777344 63.175781 " fill-opacity="1" fill-rule="nonzero"/></svg>